<mxfile host="app.diagrams.net" modified="2024-02-20T12:14:26.690Z" agent="Mozilla/5.0 (Windows NT 10.0; Win64; x64) AppleWebKit/537.36 (KHTML, like Gecko) Chrome/121.0.0.0 Safari/537.36 Edg/121.0.0.0" etag="LP6qy0jN5AO7AQcuQ_bD" version="22.1.18" type="github">
  <diagram name="第 1 页" id="k0Vl1BLTB-rRPiJByB6M">
    <mxGraphModel dx="832" dy="447" grid="1" gridSize="10" guides="1" tooltips="1" connect="1" arrows="1" fold="1" page="1" pageScale="1" pageWidth="827" pageHeight="1169" math="0" shadow="0">
      <root>
        <mxCell id="0" />
        <mxCell id="1" parent="0" />
        <mxCell id="nIZVXVj7oG83VnBByHiP-4" value="" style="edgeStyle=orthogonalEdgeStyle;rounded=0;orthogonalLoop=1;jettySize=auto;html=1;" edge="1" parent="1" source="nIZVXVj7oG83VnBByHiP-2" target="nIZVXVj7oG83VnBByHiP-3">
          <mxGeometry relative="1" as="geometry" />
        </mxCell>
        <mxCell id="nIZVXVj7oG83VnBByHiP-2" value="用户输入" style="rounded=1;whiteSpace=wrap;html=1;fillColor=#dae8fc;strokeColor=#6c8ebf;arcSize=28;" vertex="1" parent="1">
          <mxGeometry x="80" y="170" width="120" height="60" as="geometry" />
        </mxCell>
        <mxCell id="nIZVXVj7oG83VnBByHiP-8" value="" style="edgeStyle=orthogonalEdgeStyle;rounded=0;orthogonalLoop=1;jettySize=auto;html=1;" edge="1" parent="1" source="nIZVXVj7oG83VnBByHiP-3" target="nIZVXVj7oG83VnBByHiP-7">
          <mxGeometry relative="1" as="geometry" />
        </mxCell>
        <mxCell id="nIZVXVj7oG83VnBByHiP-3" value="通过代码简单过滤一下生成判断值0/1" style="rounded=1;whiteSpace=wrap;html=1;fillColor=#dae8fc;strokeColor=#6c8ebf;arcSize=28;" vertex="1" parent="1">
          <mxGeometry x="280" y="170" width="120" height="60" as="geometry" />
        </mxCell>
        <mxCell id="nIZVXVj7oG83VnBByHiP-11" style="edgeStyle=orthogonalEdgeStyle;rounded=0;orthogonalLoop=1;jettySize=auto;html=1;exitX=1;exitY=0.5;exitDx=0;exitDy=0;entryX=0;entryY=0.5;entryDx=0;entryDy=0;" edge="1" parent="1" source="nIZVXVj7oG83VnBByHiP-7" target="nIZVXVj7oG83VnBByHiP-9">
          <mxGeometry relative="1" as="geometry" />
        </mxCell>
        <mxCell id="nIZVXVj7oG83VnBByHiP-14" value="是" style="edgeLabel;html=1;align=center;verticalAlign=middle;resizable=0;points=[];" vertex="1" connectable="0" parent="nIZVXVj7oG83VnBByHiP-11">
          <mxGeometry x="0.113" y="1" relative="1" as="geometry">
            <mxPoint as="offset" />
          </mxGeometry>
        </mxCell>
        <mxCell id="nIZVXVj7oG83VnBByHiP-13" style="edgeStyle=orthogonalEdgeStyle;rounded=0;orthogonalLoop=1;jettySize=auto;html=1;exitX=1;exitY=0.5;exitDx=0;exitDy=0;entryX=0;entryY=0.5;entryDx=0;entryDy=0;" edge="1" parent="1" source="nIZVXVj7oG83VnBByHiP-7" target="nIZVXVj7oG83VnBByHiP-12">
          <mxGeometry relative="1" as="geometry" />
        </mxCell>
        <mxCell id="nIZVXVj7oG83VnBByHiP-15" value="否" style="edgeLabel;html=1;align=center;verticalAlign=middle;resizable=0;points=[];" vertex="1" connectable="0" parent="nIZVXVj7oG83VnBByHiP-13">
          <mxGeometry y="-1" relative="1" as="geometry">
            <mxPoint as="offset" />
          </mxGeometry>
        </mxCell>
        <mxCell id="nIZVXVj7oG83VnBByHiP-7" value="判断是否走题库" style="rhombus;whiteSpace=wrap;html=1;fillColor=#dae8fc;strokeColor=#6c8ebf;rounded=1;arcSize=28;" vertex="1" parent="1">
          <mxGeometry x="500" y="160" width="80" height="80" as="geometry" />
        </mxCell>
        <mxCell id="nIZVXVj7oG83VnBByHiP-19" style="edgeStyle=orthogonalEdgeStyle;rounded=0;orthogonalLoop=1;jettySize=auto;html=1;exitX=1;exitY=0.5;exitDx=0;exitDy=0;entryX=0;entryY=0.5;entryDx=0;entryDy=0;" edge="1" parent="1" source="nIZVXVj7oG83VnBByHiP-9" target="nIZVXVj7oG83VnBByHiP-18">
          <mxGeometry relative="1" as="geometry" />
        </mxCell>
        <mxCell id="nIZVXVj7oG83VnBByHiP-9" value="知识库搜索" style="whiteSpace=wrap;html=1;fillColor=#dae8fc;strokeColor=#6c8ebf;rounded=1;arcSize=28;" vertex="1" parent="1">
          <mxGeometry x="670" y="30" width="120" height="60" as="geometry" />
        </mxCell>
        <mxCell id="nIZVXVj7oG83VnBByHiP-17" value="" style="edgeStyle=orthogonalEdgeStyle;rounded=0;orthogonalLoop=1;jettySize=auto;html=1;" edge="1" parent="1" source="nIZVXVj7oG83VnBByHiP-12" target="nIZVXVj7oG83VnBByHiP-16">
          <mxGeometry relative="1" as="geometry" />
        </mxCell>
        <mxCell id="nIZVXVj7oG83VnBByHiP-12" value="从web搜索内容" style="whiteSpace=wrap;html=1;fillColor=#dae8fc;strokeColor=#6c8ebf;rounded=1;arcSize=28;" vertex="1" parent="1">
          <mxGeometry x="670" y="290" width="120" height="60" as="geometry" />
        </mxCell>
        <mxCell id="nIZVXVj7oG83VnBByHiP-21" style="edgeStyle=orthogonalEdgeStyle;rounded=0;orthogonalLoop=1;jettySize=auto;html=1;exitX=1;exitY=0.5;exitDx=0;exitDy=0;entryX=0;entryY=0.5;entryDx=0;entryDy=0;" edge="1" parent="1" source="nIZVXVj7oG83VnBByHiP-16" target="nIZVXVj7oG83VnBByHiP-18">
          <mxGeometry relative="1" as="geometry" />
        </mxCell>
        <mxCell id="nIZVXVj7oG83VnBByHiP-16" value="过滤web网页内容" style="whiteSpace=wrap;html=1;fillColor=#dae8fc;strokeColor=#6c8ebf;rounded=1;arcSize=28;" vertex="1" parent="1">
          <mxGeometry x="870" y="290" width="120" height="60" as="geometry" />
        </mxCell>
        <mxCell id="nIZVXVj7oG83VnBByHiP-18" value="交给大模型检索内容并回答内容" style="whiteSpace=wrap;html=1;fillColor=#dae8fc;strokeColor=#6c8ebf;rounded=1;arcSize=28;" vertex="1" parent="1">
          <mxGeometry x="1050" y="140" width="120" height="60" as="geometry" />
        </mxCell>
      </root>
    </mxGraphModel>
  </diagram>
</mxfile>
